
        <svg xmlns="http://www.w3.org/2000/svg" xmlns:xlink="http://www.w3.org/1999/xlink" version="1.1" width="3187.5" 
        height="1124.9782782126522" viewBox="0 0 3187.5 1124.9782782126522">
			<rect fill="transparent" width="3187.5" height="1124.9782782126522"/>
			<g transform="scale(9.375) translate(10, 10)">
				<defs id="SvgjsDefs1208"></defs><g id="SvgjsG1209" featureKey="symbolFeature-0" transform="matrix(1.1503507520126661,0,0,1.1503507520126661,-6.998733553974033,-7.328884426048942)" fill="#111111"><path xmlns="http://www.w3.org/2000/svg" d="M49.549,6.371c-23.968,0-43.465,19.497-43.465,43.464c0,23.966,19.497,43.464,43.465,43.464  c23.967,0,43.465-19.498,43.465-43.464C93.014,25.868,73.516,6.371,49.549,6.371z M49.549,90.928  c-22.659,0-41.095-18.433-41.095-41.093c0-22.656,18.436-41.094,41.095-41.094s41.095,18.438,41.095,41.094  C90.644,72.495,72.208,90.928,49.549,90.928z"></path><path xmlns="http://www.w3.org/2000/svg" d="M59.605,52.245c-1.162-0.696-2.537-1.267-4.089-1.687c-0.503-0.137-1.083-0.287-1.608-0.424V33.64  c1.344,0.322,2.521,0.869,3.492,1.617c0.969,0.748,1.758,1.731,2.347,2.923c0.591,1.201,0.925,2.715,0.99,4.499  c0.002,0.047,0.018,0.089,0.031,0.132c0,0.001-0.001,0.002-0.001,0.004c0,0.572,0.463,1.036,1.035,1.036s1.037-0.464,1.037-1.036  c0-0.023-0.012-0.042-0.014-0.065c0.006-0.03,0.019-0.056,0.019-0.089c0-0.067-0.013-0.131-0.036-0.194  c-0.119-2.031-0.527-3.786-1.217-5.213c-0.715-1.479-1.684-2.692-2.884-3.607c-1.189-0.903-2.59-1.57-4.165-1.973  c-0.199-0.053-0.428-0.081-0.635-0.127v-4.327c0-0.586-0.476-1.064-1.062-1.064c-0.586,0-1.062,0.478-1.062,1.064v3.987  c-1.357-0.144-2.786-0.178-4.248-0.046v-3.941c0-0.586-0.476-1.064-1.062-1.064c-0.587,0-1.063,0.478-1.063,1.064v4.247  c-0.162,0.028-0.326,0.034-0.489,0.068c-1.538,0.322-2.938,0.857-4.168,1.594c-1.254,0.754-2.291,1.783-3.083,3.055  c-0.797,1.289-1.2,2.899-1.2,4.792c0,1.864,0.389,3.411,1.155,4.603c0.758,1.168,1.772,2.123,3.013,2.825  c1.211,0.679,2.583,1.22,4.08,1.605c0.23,0.057,0.46,0.108,0.692,0.166v17.479c-0.145-0.034-0.307-0.053-0.45-0.092  c-1.536-0.403-2.876-1.065-3.979-1.963c-1.102-0.892-1.967-2.07-2.575-3.492c-0.614-1.438-0.926-3.232-0.926-5.327  c0-0.078-0.019-0.15-0.049-0.217c-0.112-0.452-0.501-0.794-0.987-0.794c-0.481,0-0.867,0.334-0.984,0.777  c-0.035,0.069-0.06,0.145-0.061,0.228c-0.036,2.377,0.313,4.437,1.036,6.134c0.726,1.703,1.771,3.117,3.11,4.205  c1.333,1.081,2.924,1.882,4.732,2.369c0.361,0.099,0.758,0.14,1.133,0.22v4.199c0,0.588,0.476,1.065,1.063,1.065  c0.586,0,1.062-0.478,1.062-1.065v-3.843c0.85,0.086,1.716,0.155,2.619,0.155c0.543,0,1.085-0.051,1.629-0.092v3.779  c0,0.588,0.477,1.065,1.062,1.065c0.587,0,1.062-0.478,1.062-1.065v-4.062c0.336-0.063,0.674-0.097,1.006-0.173  c1.586-0.373,3.033-0.978,4.299-1.806c1.283-0.84,2.333-1.916,3.12-3.205c0.795-1.3,1.198-2.888,1.198-4.712  c0-1.996-0.36-3.612-1.067-4.81C61.762,53.942,60.799,52.976,59.605,52.245z M45.41,48.011c-1.16-0.311-2.248-0.69-3.193-1.185  c-1.098-0.569-1.998-1.323-2.675-2.237c-0.659-0.894-0.992-2.106-0.992-3.614c0-1.513,0.331-2.778,0.981-3.757  c0.664-0.995,1.523-1.806,2.556-2.41c0.987-0.575,2.11-0.983,3.324-1.231V48.011z M51.783,68.102  c-1.453,0.131-2.888,0.086-4.248-0.076V50.691c0.525,0.127,1.052,0.265,1.575,0.386c0.854,0.207,1.774,0.408,2.672,0.61V68.102z   M51.783,49.57c-0.379-0.098-0.709-0.19-1.098-0.288c-1.072-0.259-2.108-0.494-3.15-0.736V33.261  c1.489-0.145,2.91-0.133,4.248,0.022V49.57z M60.484,63.642c-0.651,1.048-1.513,1.916-2.562,2.583  c-1.063,0.68-2.284,1.174-3.632,1.485c-0.126,0.028-0.256,0.033-0.383,0.063V52.194c1.293,0.304,2.502,0.719,3.576,1.265  c1.161,0.588,2.127,1.393,2.872,2.394c0.726,0.967,1.095,2.33,1.095,4.039C61.451,61.347,61.126,62.606,60.484,63.642z"></path></g><g id="SvgjsG1210" featureKey="nameFeature-0" transform="matrix(1.9083968909926992,0,0,1.9083968909926992,116.64122467503367,0.5572521251284748)" fill="#111111"><path d="M28.32 20.96 c0 0.56 -0.04 2.36 -0.68 4.04 c-0.36 0.96 -1.8 3.92 -4.92 5.08 c-1.68 0.64 -3.36 0.72 -5.12 0.72 l-6.88 0 l0 9.2 l-8.96 0 l0 -28.24 l16.12 0 c2.76 0 5.32 0.2 7.52 2.12 c2.84 2.44 2.92 5.84 2.92 7.08 z M19.44 21.24 c0 -0.32 0 -1.16 -0.44 -1.96 c-0.88 -1.6 -2.76 -1.6 -3.24 -1.6 l-5.04 0 l0 7.2 l5.08 0 c0.12 0 1 -0.04 1.6 -0.24 c0.8 -0.28 2.04 -1.16 2.04 -3.4 z M55.760000000000005 28.68 c0 1.8 -0.24 3.32 -0.88 5 c-1.96 5.12 -7.08 7.08 -12.12 7.08 c-1.04 0 -3.84 -0.08 -6.64 -1.32 c-1.2 -0.52 -4.08 -1.92 -5.4 -5.4 c-0.52 -1.4 -0.72 -2.56 -0.72 -5.52 l0 -16.76 l8.96 0 l0 17.64 c0 0.28 -0.04 1.28 0.28 2.16 c0.72 2.16 2.96 2.28 3.6 2.28 c0.6 0 2.84 -0.12 3.64 -2.24 c0.28 -0.72 0.28 -1.36 0.28 -2.2 l0 -17.64 l9 0 l0 16.92 z M81.56 17.96 l-13.44 0 l0 5.08 l12.56 0 l0 6.12 l-12.56 0 l0 10.84 l-8.88 0 l0 -28.24 l22.32 0 l0 6.2 z M106.56 17.96 l-13.44 0 l0 5.08 l12.56 0 l0 6.12 l-12.56 0 l0 10.84 l-8.88 0 l0 -28.24 l22.32 0 l0 6.2 z"></path></g>
			</g>
		</svg>
	